<svg xmlns="http://www.w3.org/2000/svg" xmlns:xlink="http://www.w3.org/1999/xlink" width="500" zoomAndPan="magnify" viewBox="0 0 375 374.999991" height="500" preserveAspectRatio="xMidYMid meet" version="1.0"><defs><g/><clipPath id="f64e3b0bd6"><rect x="0" width="124" y="0" height="76"/></clipPath></defs><g transform="matrix(1, 0, 0, 1, 124, 89)"><g clip-path="url(#f64e3b0bd6)"><g fill="#ff3131" fill-opacity="1"><g transform="translate(0.715501, 57.374581)"><g><path d="M 20.421875 0 L 0.78125 0 L 0.78125 -51.796875 L 18.046875 -51.796875 C 21.984375 -51.796875 25.132812 -51.222656 27.5 -50.078125 C 29.863281 -48.941406 31.570312 -47.378906 32.625 -45.390625 C 33.6875 -43.398438 34.234375 -41.160156 34.265625 -38.671875 C 34.304688 -37.390625 34.171875 -36 33.859375 -34.5 C 33.546875 -33 32.957031 -31.597656 32.09375 -30.296875 C 31.226562 -29.003906 29.96875 -28.03125 28.3125 -27.375 C 30.414062 -26.882812 32.070312 -26.023438 33.28125 -24.796875 C 34.488281 -23.578125 35.351562 -22.128906 35.875 -20.453125 C 36.394531 -18.773438 36.65625 -17.003906 36.65625 -15.140625 C 36.65625 -13.335938 36.367188 -11.535156 35.796875 -9.734375 C 35.222656 -7.941406 34.296875 -6.3125 33.015625 -4.84375 C 31.742188 -3.375 30.078125 -2.195312 28.015625 -1.3125 C 25.960938 -0.4375 23.429688 0 20.421875 0 Z M 16.328125 -20.484375 L 16.328125 -15.546875 L 18.40625 -15.546875 C 19.332031 -15.546875 20.160156 -15.707031 20.890625 -16.03125 C 21.617188 -16.363281 21.96875 -17.035156 21.9375 -18.046875 C 21.894531 -19.015625 21.535156 -19.660156 20.859375 -19.984375 C 20.191406 -20.316406 19.390625 -20.484375 18.453125 -20.484375 Z M 18.875 -36.234375 L 16.328125 -36.234375 L 16.328125 -33.4375 L 18.8125 -33.4375 C 19.570312 -33.4375 20.070312 -33.582031 20.3125 -33.875 C 20.5625 -34.175781 20.6875 -34.476562 20.6875 -34.78125 C 20.6875 -35.164062 20.546875 -35.503906 20.265625 -35.796875 C 19.992188 -36.085938 19.53125 -36.234375 18.875 -36.234375 Z M 18.875 -36.234375 "/></g></g></g><g fill="#ff3131" fill-opacity="1"><g transform="translate(38.143281, 57.374581)"><g><path d="M 0.78125 0 L 0.78125 -51.796875 L 16.328125 -51.796875 L 16.328125 0 Z M 0.78125 0 "/></g></g></g><g fill="#ff3131" fill-opacity="1"><g transform="translate(55.250161, 57.374581)"><g><path d="M 12.953125 -18.09375 C 12.953125 -18.925781 12.660156 -19.722656 12.078125 -20.484375 C 11.492188 -21.242188 10.742188 -22.03125 9.828125 -22.84375 C 8.910156 -23.65625 7.921875 -24.535156 6.859375 -25.484375 C 5.804688 -26.429688 4.820312 -27.519531 3.90625 -28.75 C 3 -29.976562 2.25 -31.40625 1.65625 -33.03125 C 1.070312 -34.65625 0.78125 -36.519531 0.78125 -38.625 C 0.78125 -41.53125 1.347656 -43.957031 2.484375 -45.90625 C 3.628906 -47.863281 5.109375 -49.34375 6.921875 -50.34375 C 8.734375 -51.34375 10.644531 -51.84375 12.65625 -51.84375 L 28.5625 -51.84375 L 28.5625 -36.296875 L 24.421875 -36.296875 C 23.722656 -36.296875 22.992188 -36.257812 22.234375 -36.1875 C 21.472656 -36.113281 20.832031 -35.882812 20.3125 -35.5 C 19.800781 -35.125 19.546875 -34.453125 19.546875 -33.484375 C 19.546875 -32.660156 19.820312 -31.945312 20.375 -31.34375 C 20.925781 -30.738281 21.640625 -30.148438 22.515625 -29.578125 C 23.398438 -29.003906 24.332031 -28.351562 25.3125 -27.625 C 26.300781 -26.90625 27.238281 -26.023438 28.125 -24.984375 C 29.007812 -23.953125 29.726562 -22.65625 30.28125 -21.09375 C 30.832031 -19.539062 31.109375 -17.625 31.109375 -15.34375 C 31.109375 -12.375 30.535156 -9.726562 29.390625 -7.40625 C 28.253906 -5.09375 26.628906 -3.28125 24.515625 -1.96875 C 22.410156 -0.65625 19.90625 0 17 0 L 1.5 0 L 1.5 -15.546875 L 7.46875 -15.546875 C 9.300781 -15.546875 10.671875 -15.726562 11.578125 -16.09375 C 12.492188 -16.457031 12.953125 -17.125 12.953125 -18.09375 Z M 12.953125 -18.09375 "/></g></g></g><g fill="#ff3131" fill-opacity="1"><g transform="translate(87.131161, 57.374581)"><g><path d="M 17.421875 0 L 0.78125 0 L 0.78125 -51.796875 L 17.421875 -51.796875 C 21.535156 -51.796875 24.9375 -50.707031 27.625 -48.53125 C 30.320312 -46.351562 32.335938 -43.316406 33.671875 -39.421875 C 35.003906 -35.535156 35.648438 -31.035156 35.609375 -25.921875 C 35.609375 -20.628906 34.832031 -16.039062 33.28125 -12.15625 C 31.726562 -8.269531 29.59375 -5.269531 26.875 -3.15625 C 24.164062 -1.050781 21.015625 0 17.421875 0 Z M 17.421875 -37.125 L 16.28125 -37.125 L 16.28125 -15.140625 L 17.421875 -15.140625 C 17.898438 -15.140625 18.3125 -15.535156 18.65625 -16.328125 C 19.007812 -17.117188 19.304688 -18.171875 19.546875 -19.484375 C 19.785156 -20.804688 19.945312 -22.242188 20.03125 -23.796875 C 20.125 -25.347656 20.144531 -26.898438 20.09375 -28.453125 C 20.039062 -30.015625 19.898438 -31.453125 19.671875 -32.765625 C 19.453125 -34.078125 19.160156 -35.128906 18.796875 -35.921875 C 18.429688 -36.722656 17.972656 -37.125 17.421875 -37.125 Z M 17.421875 -37.125 "/></g></g></g></g></g><g fill="#29b554" fill-opacity="1"><g transform="translate(72.675381, 258.500988)"><g><path d="M 1.636719 -110.992188 L 36.398438 -110.992188 L 36.398438 -70.777344 L 34.351562 -70.777344 L 34.351562 -72.824219 L 42.3125 -72.824219 L 42.3125 -70.777344 L 40.269531 -70.777344 L 40.269531 -110.992188 L 77.078125 -110.992188 L 77.078125 2.042969 L 40.269531 2.042969 L 40.269531 -38.0625 L 42.3125 -38.0625 L 42.3125 -36.015625 L 34.351562 -36.015625 L 34.351562 -38.0625 L 36.398438 -38.0625 L 36.398438 2.042969 L -0.410156 2.042969 L -0.410156 -110.992188 Z M 1.636719 -106.902344 L 1.636719 -108.949219 L 3.679688 -108.949219 L 3.679688 0 L 1.636719 0 L 1.636719 -2.042969 L 34.351562 -2.042969 L 34.351562 0 L 32.308594 0 L 32.308594 -40.105469 L 44.359375 -40.105469 L 44.359375 0 L 42.3125 0 L 42.3125 -2.042969 L 75.03125 -2.042969 L 75.03125 0 L 72.988281 0 L 72.988281 -108.949219 L 75.03125 -108.949219 L 75.03125 -106.902344 L 42.3125 -106.902344 L 42.3125 -108.949219 L 44.359375 -108.949219 L 44.359375 -68.734375 L 32.308594 -68.734375 L 32.308594 -108.949219 L 34.351562 -108.949219 L 34.351562 -106.902344 Z M 1.636719 -106.902344 "/></g></g></g><g fill="#29b554" fill-opacity="1"><g transform="translate(149.340823, 258.500988)"><g><path d="M 1.636719 -111.101562 L 36.398438 -111.101562 L 36.398438 -43.40625 C 36.398438 -39.546875 36.601562 -36.628906 37.011719 -34.660156 C 37.136719 -34.050781 37.316406 -33.644531 37.554688 -33.4375 C 37.726562 -33.285156 38.015625 -33.21875 38.417969 -33.234375 L 38.496094 -33.234375 C 38.921875 -33.234375 39.234375 -33.320312 39.425781 -33.496094 C 39.675781 -33.714844 39.859375 -34.121094 39.984375 -34.71875 C 40.394531 -36.652344 40.597656 -39.546875 40.597656 -43.40625 L 40.597656 -111.101562 L 77.402344 -111.101562 L 77.402344 -29.226562 C 77.402344 -22.96875 75.945312 -17.351562 73.035156 -12.378906 C 70.101562 -7.375 65.722656 -3.4375 59.90625 -0.566406 C 54.167969 2.265625 46.957031 3.679688 38.277344 3.679688 C 29.816406 3.679688 22.71875 2.265625 16.980469 -0.566406 C 11.15625 -3.4375 6.796875 -7.378906 3.902344 -12.390625 C 1.027344 -17.359375 -0.410156 -22.972656 -0.410156 -29.226562 L -0.410156 -111.101562 Z M 1.636719 -107.011719 L 1.636719 -109.058594 L 3.679688 -109.058594 L 3.679688 -29.226562 C 3.679688 -23.703125 4.933594 -18.773438 7.441406 -14.4375 C 9.925781 -10.140625 13.707031 -6.742188 18.789062 -4.234375 C 23.957031 -1.683594 30.453125 -0.410156 38.277344 -0.410156 C 46.324219 -0.410156 52.925781 -1.683594 58.09375 -4.234375 C 63.183594 -6.742188 66.984375 -10.148438 69.503906 -14.449219 C 72.042969 -18.78125 73.3125 -23.707031 73.3125 -29.226562 L 73.3125 -109.058594 L 75.359375 -109.058594 L 75.359375 -107.011719 L 42.640625 -107.011719 L 42.640625 -109.058594 L 44.6875 -109.058594 L 44.6875 -43.40625 C 44.6875 -39.265625 44.453125 -36.089844 43.988281 -33.878906 C 43.675781 -32.402344 43.0625 -31.257812 42.148438 -30.441406 C 41.179688 -29.578125 39.960938 -29.144531 38.496094 -29.144531 L 38.496094 -31.191406 L 38.574219 -29.148438 C 37.089844 -29.089844 35.851562 -29.496094 34.859375 -30.359375 C 33.933594 -31.171875 33.316406 -32.328125 33.003906 -33.828125 C 32.539062 -36.074219 32.308594 -39.265625 32.308594 -43.40625 L 32.308594 -109.058594 L 34.351562 -109.058594 L 34.351562 -107.011719 Z M 1.636719 -107.011719 "/></g></g></g><g fill="#29b554" fill-opacity="1"><g transform="translate(226.333429, 258.500988)"><g><path d="M 42.96875 2.042969 L -0.410156 2.042969 L -0.410156 -110.992188 L 37.953125 -110.992188 C 46.550781 -110.992188 53.480469 -109.726562 58.742188 -107.191406 C 64.125 -104.597656 68.03125 -101.015625 70.457031 -96.4375 C 72.828125 -91.964844 74.054688 -86.949219 74.132812 -81.386719 C 74.207031 -78.554688 73.902344 -75.480469 73.21875 -72.164062 C 72.507812 -68.742188 71.171875 -65.558594 69.207031 -62.609375 C 67.152344 -59.527344 64.183594 -57.21875 60.296875 -55.679688 L 59.546875 -57.582031 L 60.003906 -59.574219 C 64.824219 -58.46875 68.648438 -56.484375 71.472656 -53.621094 C 74.25 -50.800781 76.234375 -47.472656 77.421875 -43.628906 C 78.574219 -39.90625 79.148438 -35.976562 79.148438 -31.84375 C 79.148438 -27.851562 78.515625 -23.867188 77.253906 -19.882812 C 75.96875 -15.835938 73.886719 -12.15625 71.011719 -8.855469 C 68.117188 -5.527344 64.363281 -2.878906 59.75 -0.902344 C 55.167969 1.0625 49.574219 2.042969 42.96875 2.042969 Z M 42.96875 -2.042969 C 49.015625 -2.042969 54.070312 -2.917969 58.140625 -4.660156 C 62.179688 -6.390625 65.441406 -8.683594 67.925781 -11.539062 C 70.433594 -14.417969 72.242188 -17.609375 73.355469 -21.121094 C 74.492188 -24.699219 75.058594 -28.273438 75.058594 -31.84375 C 75.058594 -35.566406 74.542969 -39.089844 73.515625 -42.417969 C 72.523438 -45.628906 70.871094 -48.402344 68.558594 -50.75 C 66.292969 -53.046875 63.136719 -54.660156 59.089844 -55.589844 L 52.671875 -57.0625 L 58.792969 -59.484375 C 61.886719 -60.707031 64.222656 -62.507812 65.804688 -64.878906 C 67.476562 -67.382812 68.613281 -70.089844 69.210938 -72.992188 C 69.835938 -76 70.109375 -78.777344 70.042969 -81.328125 C 69.972656 -86.234375 68.910156 -90.632812 66.84375 -94.523438 C 64.835938 -98.308594 61.542969 -101.300781 56.96875 -103.507812 C 52.269531 -105.769531 45.929688 -106.902344 37.953125 -106.902344 L 1.636719 -106.902344 L 1.636719 -108.949219 L 3.679688 -108.949219 L 3.679688 0 L 1.636719 0 L 1.636719 -2.042969 Z M 36.398438 -43.078125 L 36.398438 -32.71875 L 34.351562 -32.71875 L 34.351562 -34.761719 L 38.714844 -34.761719 C 40.382812 -34.761719 41.847656 -35.046875 43.105469 -35.617188 C 43.441406 -35.765625 43.679688 -35.984375 43.824219 -36.265625 C 44.023438 -36.644531 44.113281 -37.183594 44.085938 -37.882812 C 44.042969 -39.097656 43.683594 -39.871094 43 -40.203125 C 41.863281 -40.757812 40.472656 -41.03125 38.824219 -41.03125 L 34.351562 -41.03125 L 34.351562 -43.078125 Z M 32.308594 -45.121094 L 38.824219 -45.121094 C 41.101562 -45.121094 43.089844 -44.707031 44.792969 -43.878906 C 46.945312 -42.832031 48.074219 -40.878906 48.175781 -38.023438 C 48.222656 -36.609375 47.984375 -35.394531 47.457031 -34.378906 C 46.875 -33.257812 45.988281 -32.429688 44.792969 -31.890625 C 43 -31.078125 40.972656 -30.671875 38.714844 -30.671875 L 32.308594 -30.671875 Z M 39.695312 -74.1875 L 34.351562 -74.1875 L 34.351562 -76.230469 L 36.398438 -76.230469 L 36.398438 -70.34375 L 34.351562 -70.34375 L 34.351562 -72.386719 L 39.585938 -72.386719 C 40.191406 -72.386719 40.664062 -72.4375 41.003906 -72.535156 C 41.101562 -72.566406 41.175781 -72.59375 41.222656 -72.621094 C 41.214844 -72.617188 41.195312 -72.597656 41.171875 -72.570312 C 41.371094 -72.808594 41.46875 -73.011719 41.46875 -73.175781 C 41.46875 -73.4375 41.363281 -73.679688 41.152344 -73.902344 C 40.972656 -74.089844 40.488281 -74.1875 39.695312 -74.1875 Z M 39.695312 -78.277344 C 41.667969 -78.277344 43.144531 -77.753906 44.128906 -76.707031 C 45.082031 -75.695312 45.558594 -74.519531 45.558594 -73.175781 C 45.558594 -72.035156 45.148438 -70.964844 44.328125 -69.96875 C 43.410156 -68.855469 41.832031 -68.296875 39.585938 -68.296875 L 32.308594 -68.296875 L 32.308594 -78.277344 Z M 39.695312 -78.277344 "/></g></g></g></svg>